<svg width="32" height="32" viewBox="0 0 32 32" fill="none" xmlns="http://www.w3.org/2000/svg">
  <!-- Основание весов -->
  <rect x="14" y="26" width="4" height="6" fill="#1A202C" rx="1"/>
  
  <!-- Стойка весов -->
  <rect x="15.5" y="6" width="1" height="20" fill="#1A202C"/>
  
  <!-- Поперечная балка -->
  <rect x="4" y="6" width="24" height="2" fill="#1A202C" rx="1"/>
  
  <!-- Меч правосудия -->
  <rect x="15.5" y="2" width="1" height="8" fill="#2D3748"/>
  <path d="M15 2 L17 2 L16 0 Z" fill="#2D3748"/>
  
  <!-- Левая чаша весов -->
  <ellipse cx="8" cy="12" rx="4" ry="1" fill="#4A5568" stroke="#1A202C" stroke-width="0.5"/>
  <path d="M4 12 Q8 10 12 12" fill="none" stroke="#1A202C" stroke-width="1"/>
  <path d="M4 12 Q8 14 12 12" fill="none" stroke="#1A202C" stroke-width="1"/>
  
  <!-- Правая чаша весов -->
  <ellipse cx="24" cy="12" rx="4" ry="1" fill="#4A5568" stroke="#1A202C" stroke-width="0.5"/>
  <path d="M20 12 Q24 10 28 12" fill="none" stroke="#1A202C" stroke-width="1"/>
  <path d="M20 12 Q24 14 28 12" fill="none" stroke="#1A202C" stroke-width="1"/>
  
  <!-- Цепочки левой чаши -->
  <line x1="8" y1="6" x2="8" y2="10" stroke="#1A202C" stroke-width="0.8"/>
  <line x1="8" y1="10" x2="6" y2="12" stroke="#1A202C" stroke-width="0.5"/>
  <line x1="8" y1="10" x2="10" y2="12" stroke="#1A202C" stroke-width="0.5"/>
  
  <!-- Цепочки правой чаши -->
  <line x1="24" y1="6" x2="24" y2="10" stroke="#1A202C" stroke-width="0.8"/>
  <line x1="24" y1="10" x2="22" y2="12" stroke="#1A202C" stroke-width="0.5"/>
  <line x1="24" y1="10" x2="26" y2="12" stroke="#1A202C" stroke-width="0.5"/>
  
  <!-- Символы справедливости -->
  <text x="8" y="15" font-family="serif" font-size="4" fill="#1A202C" text-anchor="middle">⚖</text>
  <text x="24" y="15" font-family="serif" font-size="4" fill="#1A202C" text-anchor="middle">⚖</text>
</svg>
