<svg width="32" height="32" viewBox="0 0 32 32" fill="none" xmlns="http://www.w3.org/2000/svg">
  <!-- Основание весов -->
  <rect x="15" y="28" width="2" height="4" fill="#2D3748"/>
  
  <!-- Стойка весов -->
  <rect x="15.5" y="8" width="1" height="20" fill="#2D3748"/>
  
  <!-- Поперечная балка -->
  <rect x="4" y="8" width="24" height="2" fill="#2D3748"/>
  
  <!-- Левая чаша весов -->
  <path d="M6 10 L6 16 L10 16 L10 10 Z" fill="#4A5568" stroke="#2D3748" stroke-width="1"/>
  <path d="M6 10 L8 8 L10 10" fill="none" stroke="#2D3748" stroke-width="1"/>
  
  <!-- Правая чаша весов -->
  <path d="M22 10 L22 16 L26 16 L26 10 Z" fill="#4A5568" stroke="#2D3748" stroke-width="1"/>
  <path d="M22 10 L24 8 L26 10" fill="none" stroke="#2D3748" stroke-width="1"/>
  
  <!-- Цепочки левой чаши -->
  <line x1="8" y1="8" x2="8" y2="12" stroke="#2D3748" stroke-width="1"/>
  <line x1="8" y1="12" x2="6" y2="14" stroke="#2D3748" stroke-width="1"/>
  <line x1="8" y1="12" x2="10" y2="14" stroke="#2D3748" stroke-width="1"/>
  
  <!-- Цепочки правой чаши -->
  <line x1="24" y1="8" x2="24" y2="12" stroke="#2D3748" stroke-width="1"/>
  <line x1="24" y1="12" x2="22" y2="14" stroke="#2D3748" stroke-width="1"/>
  <line x1="24" y1="12" x2="26" y2="14" stroke="#2D3748" stroke-width="1"/>
  
  <!-- Символы справедливости на чашах -->
  <text x="8" y="13" font-family="Arial, sans-serif" font-size="6" fill="#2D3748" text-anchor="middle">⚖</text>
  <text x="24" y="13" font-family="Arial, sans-serif" font-size="6" fill="#2D3748" text-anchor="middle">⚖</text>
</svg>
